# xmcd CD database file
#
# Track frame offsets:
#	150
#	32752
#	74110
#	109932
#	132192
#	165400
#	198777
#
# Disc length: 3202 seconds
#
# Revision: 0
# Processed by: cddbd v1.5.1PL0 Copyright (c) Steve Scherf et al.
# Submitted via: CDex 1.51
#
DISCID=5e0c8007
DTITLE=Joe Bonner Quartet - The Lost Melody
DYEAR=1987
DGENRE=Jazz
TTITLE0=You and the night and the music
TTITLE1=Easy living
TTITLE2=Vibeke
TTITLE3=Have you met miss Jones
TTITLE4=The lost melody
TTITLE5=The song is you
TTITLE6=Manuella
EXTD=YEAR: 1987
EXTT0=
EXTT1=
EXTT2=
EXTT3=
EXTT4=
EXTT5=
EXTT6=
PLAYORDER=
